<mxfile host="Electron" modified="2023-05-28T16:23:53.202Z" agent="Mozilla/5.0 (Windows NT 10.0; Win64; x64) AppleWebKit/537.36 (KHTML, like Gecko) draw.io/21.2.8 Chrome/112.0.5615.165 Electron/24.2.0 Safari/537.36" etag="a1gzNHtjSxPgRd2A-Gd6" version="21.2.8" type="device">
  <diagram name="Pagina-1" id="YKeQVhuqmZ6LWo2OzHD8">
    <mxGraphModel dx="580" dy="-556" grid="1" gridSize="10" guides="1" tooltips="1" connect="1" arrows="1" fold="1" page="1" pageScale="1" pageWidth="827" pageHeight="1169" math="0" shadow="0">
      <root>
        <mxCell id="0" />
        <mxCell id="1" parent="0" />
        <mxCell id="O8spDBp5MC3uLVT0AQq3-1" value="&lt;p style=&quot;text-indent: -18pt;&quot; class=&quot;MsoListParagraph&quot;&gt;&lt;b&gt;5.modifica&lt;/b&gt;&lt;b&gt;&lt;span style=&quot;line-height: 107%;&quot;&gt;Nota(compito: Compito, descrizione: Testo)&lt;/span&gt;&lt;/b&gt;&lt;/p&gt;" style="text;whiteSpace=wrap;html=1;" parent="1" vertex="1">
          <mxGeometry x="630" y="1990" width="300" height="50" as="geometry" />
        </mxCell>
        <mxCell id="O8spDBp5MC3uLVT0AQq3-2" style="edgeStyle=orthogonalEdgeStyle;rounded=0;orthogonalLoop=1;jettySize=auto;html=1;exitX=0.5;exitY=1;exitDx=0;exitDy=0;endArrow=none;endFill=0;dashed=1;entryX=0.02;entryY=1.003;entryDx=0;entryDy=0;entryPerimeter=0;exitPerimeter=0;" parent="1" source="O8spDBp5MC3uLVT0AQq3-3" edge="1">
          <mxGeometry relative="1" as="geometry">
            <mxPoint x="85" y="3514" as="targetPoint" />
            <mxPoint x="85" y="2250" as="sourcePoint" />
          </mxGeometry>
        </mxCell>
        <mxCell id="O8spDBp5MC3uLVT0AQq3-3" value="UI" style="shape=folder;fontStyle=1;spacingTop=10;tabWidth=40;tabHeight=14;tabPosition=left;html=1;whiteSpace=wrap;fillColor=#fff2cc;strokeColor=#d6b656;" parent="1" vertex="1">
          <mxGeometry x="50" y="2110" width="70" height="50" as="geometry" />
        </mxCell>
        <mxCell id="O8spDBp5MC3uLVT0AQq3-4" value="taskManager:KitchenTaskManager" style="html=1;whiteSpace=wrap;fillColor=#fff2cc;strokeColor=#d6b656;" parent="1" vertex="1">
          <mxGeometry x="275" y="2120" width="200" height="30" as="geometry" />
        </mxCell>
        <mxCell id="O8spDBp5MC3uLVT0AQq3-5" style="edgeStyle=orthogonalEdgeStyle;rounded=0;orthogonalLoop=1;jettySize=auto;html=1;exitX=0.5;exitY=1;exitDx=0;exitDy=0;endArrow=none;endFill=0;dashed=1;entryX=0.02;entryY=1.003;entryDx=0;entryDy=0;entryPerimeter=0;exitPerimeter=0;" parent="1" edge="1">
          <mxGeometry relative="1" as="geometry">
            <mxPoint x="380" y="3507" as="targetPoint" />
            <mxPoint x="380" y="2153" as="sourcePoint" />
          </mxGeometry>
        </mxCell>
        <mxCell id="O8spDBp5MC3uLVT0AQq3-6" value="newTask: Task" style="html=1;whiteSpace=wrap;fillColor=#fff2cc;strokeColor=#d6b656;" parent="1" vertex="1">
          <mxGeometry x="1222" y="2120" width="109" height="30" as="geometry" />
        </mxCell>
        <mxCell id="O8spDBp5MC3uLVT0AQq3-7" value="ktListener: KitchenTaskEventReceiver" style="html=1;whiteSpace=wrap;fillColor=#fff2cc;strokeColor=#d6b656;" parent="1" vertex="1">
          <mxGeometry x="550" y="2120" width="160" height="30" as="geometry" />
        </mxCell>
        <mxCell id="O8spDBp5MC3uLVT0AQq3-8" style="edgeStyle=orthogonalEdgeStyle;rounded=0;orthogonalLoop=1;jettySize=auto;html=1;exitX=0.5;exitY=1;exitDx=0;exitDy=0;endArrow=none;endFill=0;dashed=1;entryX=0.02;entryY=1.003;entryDx=0;entryDy=0;entryPerimeter=0;exitPerimeter=0;" parent="1" edge="1">
          <mxGeometry relative="1" as="geometry">
            <mxPoint x="629.29" y="3504" as="targetPoint" />
            <mxPoint x="629.29" y="2150" as="sourcePoint" />
          </mxGeometry>
        </mxCell>
        <mxCell id="O8spDBp5MC3uLVT0AQq3-9" style="edgeStyle=orthogonalEdgeStyle;rounded=0;orthogonalLoop=1;jettySize=auto;html=1;exitX=0.5;exitY=1;exitDx=0;exitDy=0;endArrow=none;endFill=0;dashed=1;entryX=0.02;entryY=1.003;entryDx=0;entryDy=0;entryPerimeter=0;exitPerimeter=0;" parent="1" edge="1">
          <mxGeometry relative="1" as="geometry">
            <mxPoint x="1275.79" y="3504" as="targetPoint" />
            <mxPoint x="1275.79" y="2150" as="sourcePoint" />
          </mxGeometry>
        </mxCell>
        <mxCell id="O8spDBp5MC3uLVT0AQq3-12" value="taskManager.currentSheet: summarySheet" style="html=1;whiteSpace=wrap;fillColor=#fff2cc;strokeColor=#d6b656;" parent="1" vertex="1">
          <mxGeometry x="730" y="2120" width="170" height="30" as="geometry" />
        </mxCell>
        <mxCell id="O8spDBp5MC3uLVT0AQq3-13" style="edgeStyle=orthogonalEdgeStyle;rounded=0;orthogonalLoop=1;jettySize=auto;html=1;exitX=0.5;exitY=1;exitDx=0;exitDy=0;endArrow=none;endFill=0;dashed=1;entryX=0.02;entryY=1.003;entryDx=0;entryDy=0;entryPerimeter=0;exitPerimeter=0;" parent="1" edge="1">
          <mxGeometry relative="1" as="geometry">
            <mxPoint x="820" y="3504" as="targetPoint" />
            <mxPoint x="820" y="2150" as="sourcePoint" />
          </mxGeometry>
        </mxCell>
        <mxCell id="O8spDBp5MC3uLVT0AQq3-14" value="modifyNote(Task,desc)" style="html=1;verticalAlign=bottom;endArrow=block;edgeStyle=elbowEdgeStyle;elbow=vertical;curved=0;rounded=0;" parent="1" edge="1">
          <mxGeometry width="80" relative="1" as="geometry">
            <mxPoint x="90" y="2200.47" as="sourcePoint" />
            <mxPoint x="370" y="2200" as="targetPoint" />
          </mxGeometry>
        </mxCell>
        <mxCell id="O8spDBp5MC3uLVT0AQq3-15" value="modifyNote(Task,desc)" style="html=1;verticalAlign=bottom;endArrow=block;edgeStyle=elbowEdgeStyle;elbow=vertical;curved=0;rounded=0;" parent="1" edge="1">
          <mxGeometry width="80" relative="1" as="geometry">
            <mxPoint x="380" y="2230.47" as="sourcePoint" />
            <mxPoint x="820" y="2230" as="targetPoint" />
          </mxGeometry>
        </mxCell>
        <mxCell id="O8spDBp5MC3uLVT0AQq3-17" value="modifyNote(desc)" style="html=1;verticalAlign=bottom;endArrow=block;edgeStyle=elbowEdgeStyle;elbow=vertical;curved=0;rounded=0;" parent="1" edge="1" source="O8spDBp5MC3uLVT0AQq3-28">
          <mxGeometry width="80" relative="1" as="geometry">
            <mxPoint x="1000" y="2290.47" as="sourcePoint" />
            <mxPoint x="1270" y="2290" as="targetPoint" />
            <Array as="points">
              <mxPoint x="1030" y="2290" />
            </Array>
          </mxGeometry>
        </mxCell>
        <mxCell id="O8spDBp5MC3uLVT0AQq3-18" value="this.note = desc" style="html=1;align=left;spacingLeft=2;endArrow=block;rounded=0;edgeStyle=orthogonalEdgeStyle;curved=0;rounded=0;" parent="1" edge="1">
          <mxGeometry relative="1" as="geometry">
            <mxPoint x="1280" y="2308" as="sourcePoint" />
            <Array as="points">
              <mxPoint x="1310" y="2338" />
            </Array>
            <mxPoint x="1285" y="2338" as="targetPoint" />
          </mxGeometry>
        </mxCell>
        <mxCell id="O8spDBp5MC3uLVT0AQq3-19" value="newTask" style="html=1;verticalAlign=bottom;endArrow=open;dashed=1;endSize=8;edgeStyle=elbowEdgeStyle;elbow=vertical;curved=0;rounded=0;" parent="1" edge="1">
          <mxGeometry relative="1" as="geometry">
            <mxPoint x="1270" y="2360" as="sourcePoint" />
            <mxPoint x="830" y="2360" as="targetPoint" />
          </mxGeometry>
        </mxCell>
        <mxCell id="O8spDBp5MC3uLVT0AQq3-21" value="newTask" style="html=1;verticalAlign=bottom;endArrow=open;dashed=1;endSize=8;edgeStyle=elbowEdgeStyle;elbow=vertical;curved=0;rounded=0;" parent="1" edge="1">
          <mxGeometry relative="1" as="geometry">
            <mxPoint x="820" y="2460.17" as="sourcePoint" />
            <mxPoint x="380" y="2460" as="targetPoint" />
          </mxGeometry>
        </mxCell>
        <mxCell id="O8spDBp5MC3uLVT0AQq3-22" value="&lt;font style=&quot;font-size: 10px;&quot;&gt;LOOP:for all ktListener in eventReceiver&lt;/font&gt;" style="shape=umlFrame;whiteSpace=wrap;html=1;pointerEvents=0;width=200;height=20;" parent="1" vertex="1">
          <mxGeometry x="350" y="2530" width="302.5" height="101" as="geometry" />
        </mxCell>
        <mxCell id="O8spDBp5MC3uLVT0AQq3-23" value="notifyModifiedNote(newTask)" style="html=1;align=left;spacingLeft=2;endArrow=block;rounded=0;edgeStyle=orthogonalEdgeStyle;curved=0;rounded=0;" parent="1" edge="1">
          <mxGeometry relative="1" as="geometry">
            <mxPoint x="382.5" y="2490" as="sourcePoint" />
            <Array as="points">
              <mxPoint x="412.5" y="2520" />
            </Array>
            <mxPoint x="387.5" y="2520.0526315789475" as="targetPoint" />
          </mxGeometry>
        </mxCell>
        <mxCell id="O8spDBp5MC3uLVT0AQq3-24" value="updateModifiedNote(newTask)" style="html=1;verticalAlign=bottom;endArrow=block;edgeStyle=elbowEdgeStyle;elbow=vertical;curved=0;rounded=0;align=center;" parent="1" edge="1">
          <mxGeometry x="-0.3026" width="80" relative="1" as="geometry">
            <mxPoint x="382.5" y="2580.24" as="sourcePoint" />
            <mxPoint x="620" y="2580" as="targetPoint" />
            <mxPoint as="offset" />
          </mxGeometry>
        </mxCell>
        <mxCell id="O8spDBp5MC3uLVT0AQq3-25" value="" style="html=1;points=[];perimeter=orthogonalPerimeter;outlineConnect=0;targetShapes=umlLifeline;portConstraint=eastwest;newEdgeStyle={&quot;edgeStyle&quot;:&quot;elbowEdgeStyle&quot;,&quot;elbow&quot;:&quot;vertical&quot;,&quot;curved&quot;:0,&quot;rounded&quot;:0};shadow=0;imageAspect=1;fillOpacity=50;strokeOpacity=50;" parent="1" vertex="1">
          <mxGeometry x="625" y="2580" width="15" height="31" as="geometry" />
        </mxCell>
        <mxCell id="O8spDBp5MC3uLVT0AQq3-26" value="" style="html=1;points=[];perimeter=orthogonalPerimeter;outlineConnect=0;targetShapes=umlLifeline;portConstraint=eastwest;newEdgeStyle={&quot;edgeStyle&quot;:&quot;elbowEdgeStyle&quot;,&quot;elbow&quot;:&quot;vertical&quot;,&quot;curved&quot;:0,&quot;rounded&quot;:0};shadow=0;imageAspect=1;fillOpacity=50;strokeOpacity=50;" parent="1" vertex="1">
          <mxGeometry x="370" y="2200" width="20" height="460" as="geometry" />
        </mxCell>
        <mxCell id="O8spDBp5MC3uLVT0AQq3-27" value="newTask" style="html=1;verticalAlign=bottom;endArrow=open;dashed=1;endSize=8;edgeStyle=elbowEdgeStyle;elbow=vertical;curved=0;rounded=0;" parent="1" edge="1">
          <mxGeometry relative="1" as="geometry">
            <mxPoint x="380" y="2660" as="sourcePoint" />
            <mxPoint x="90" y="2660.05" as="targetPoint" />
          </mxGeometry>
        </mxCell>
        <mxCell id="O8spDBp5MC3uLVT0AQq3-28" value="" style="html=1;points=[];perimeter=orthogonalPerimeter;outlineConnect=0;targetShapes=umlLifeline;portConstraint=eastwest;newEdgeStyle={&quot;edgeStyle&quot;:&quot;elbowEdgeStyle&quot;,&quot;elbow&quot;:&quot;vertical&quot;,&quot;curved&quot;:0,&quot;rounded&quot;:0};shadow=0;imageAspect=1;fillOpacity=50;strokeOpacity=50;" parent="1" vertex="1">
          <mxGeometry x="810" y="2230" width="17" height="230" as="geometry" />
        </mxCell>
        <mxCell id="O8spDBp5MC3uLVT0AQq3-30" value="" style="html=1;points=[];perimeter=orthogonalPerimeter;outlineConnect=0;targetShapes=umlLifeline;portConstraint=eastwest;newEdgeStyle={&quot;edgeStyle&quot;:&quot;elbowEdgeStyle&quot;,&quot;elbow&quot;:&quot;vertical&quot;,&quot;curved&quot;:0,&quot;rounded&quot;:0};shadow=0;imageAspect=1;fillOpacity=50;strokeOpacity=50;" parent="1" vertex="1">
          <mxGeometry x="1268" y="2290" width="17" height="70" as="geometry" />
        </mxCell>
      </root>
    </mxGraphModel>
  </diagram>
</mxfile>
